<svg width="25" height="24" viewBox="0 0 25 24" fill="none" xmlns="http://www.w3.org/2000/svg">
<g clip-path="url(#clip0_77_142)">
<path d="M7.24983 0.0840472C5.97303 0.144287 5.10111 0.348047 4.33887 0.647567C3.54999 0.955007 2.88135 1.36757 2.21607 2.03525C1.55079 2.70293 1.14111 3.37205 0.835826 4.16213C0.540386 4.92605 0.340226 5.79869 0.283826 7.07621C0.227426 8.35373 0.214946 8.76437 0.221186 12.0231C0.227426 15.2818 0.241826 15.6903 0.303746 16.9704C0.364706 18.247 0.567746 19.1187 0.867266 19.8812C1.17519 20.67 1.58727 21.3384 2.25519 22.004C2.92311 22.6695 3.59175 23.0782 4.38375 23.384C5.14695 23.6789 6.01983 23.88 7.29711 23.936C8.57439 23.9919 8.98551 24.0048 12.2433 23.9986C15.501 23.9924 15.9112 23.978 17.1911 23.9172C18.471 23.8565 19.3381 23.652 20.1009 23.354C20.8897 23.0453 21.5586 22.634 22.2237 21.9658C22.8887 21.2976 23.2981 20.628 23.6032 19.8375C23.8989 19.0743 24.0997 18.2014 24.1552 16.9251C24.2111 15.6442 24.2243 15.2352 24.2181 11.977C24.2118 8.71877 24.1972 8.31029 24.1365 7.03061C24.0757 5.75093 23.8725 4.88189 23.5732 4.11893C23.2648 3.33005 22.8532 2.66213 22.1855 1.99613C21.5178 1.33013 20.8477 0.920927 20.0574 0.616607C19.2937 0.321167 18.4213 0.119807 17.1441 0.0646072C15.8668 0.00940721 15.4557 -0.0047528 12.1967 0.0014872C8.93775 0.0077272 8.52975 0.0216472 7.24983 0.0840472ZM7.38999 21.7772C6.21999 21.7263 5.58471 21.5319 5.16135 21.3692C4.60071 21.1532 4.20135 20.892 3.77943 20.4742C3.35751 20.0564 3.09831 19.6556 2.87943 19.0961C2.71503 18.6728 2.51703 18.0382 2.46231 16.8682C2.40279 15.6036 2.39031 15.224 2.38335 12.0202C2.37639 8.81645 2.38863 8.43725 2.44407 7.17221C2.49399 6.00317 2.68959 5.36717 2.85207 4.94405C3.06807 4.38269 3.32823 3.98405 3.74703 3.56237C4.16583 3.14069 4.56543 2.88101 5.12535 2.66213C5.54823 2.49701 6.18279 2.30069 7.35231 2.24501C8.61783 2.18501 8.99703 2.17301 12.2003 2.16605C15.4036 2.15909 15.7837 2.17109 17.0497 2.22677C18.2188 2.27765 18.855 2.47133 19.2777 2.63477C19.8385 2.85077 20.2377 3.11021 20.6593 3.52973C21.081 3.94925 21.3409 4.34741 21.5598 4.90853C21.7252 5.33021 21.9215 5.96453 21.9767 7.13477C22.0369 8.40029 22.0506 8.77973 22.0564 11.9828C22.0621 15.1858 22.0509 15.5662 21.9954 16.8308C21.9443 18.0008 21.7504 18.6363 21.5874 19.0601C21.3714 19.6205 21.111 20.0201 20.692 20.4416C20.2729 20.863 19.8738 21.1227 19.3137 21.3416C18.8913 21.5064 18.256 21.7032 17.0874 21.7589C15.8219 21.8184 15.4427 21.8309 12.2382 21.8379C9.03375 21.8448 8.65575 21.8319 7.39023 21.7772M17.1726 5.58653C17.1731 5.87135 17.258 6.14964 17.4167 6.38619C17.5753 6.62274 17.8006 6.80694 18.0639 6.91547C18.3272 7.02401 18.6168 7.05202 18.8961 6.99595C19.1753 6.93988 19.4317 6.80226 19.6327 6.60049C19.8338 6.39872 19.9704 6.14186 20.0255 5.86241C20.0805 5.58295 20.0515 5.29345 19.9419 5.03051C19.8324 4.76758 19.6474 4.54302 19.4103 4.38524C19.1732 4.22747 18.8946 4.14356 18.6097 4.14413C18.2279 4.14489 17.862 4.29727 17.5925 4.56776C17.323 4.83825 17.172 5.2047 17.1726 5.58653ZM6.05823 12.012C6.06495 15.4152 8.82879 18.1678 12.2313 18.1613C15.6337 18.1548 18.3882 15.3912 18.3817 11.988C18.3753 8.58485 15.6107 5.83157 12.2077 5.83829C8.80479 5.84501 6.05175 8.60933 6.05823 12.012ZM8.21967 12.0077C8.2181 11.2166 8.45117 10.4428 8.8894 9.78407C9.32763 9.1254 9.95134 8.61146 10.6817 8.30726C11.412 8.00306 12.2161 7.92225 12.9923 8.07506C13.7686 8.22787 14.4821 8.60742 15.0426 9.16574C15.6031 9.72405 15.9855 10.436 16.1414 11.2117C16.2973 11.9873 16.2197 12.7917 15.9184 13.5233C15.617 14.2548 15.1056 14.8805 14.4486 15.3214C13.7917 15.7622 13.0188 15.9983 12.2277 15.9999C11.7023 16.001 11.182 15.8986 10.6962 15.6986C10.2105 15.4985 9.76891 15.2048 9.39672 14.834C9.02453 14.4633 8.72902 14.0229 8.52705 13.538C8.32509 13.053 8.22064 12.533 8.21967 12.0077Z" fill="white"/>
</g>
<defs>
<clipPath id="clip0_77_142">
<rect width="24" height="24" fill="white" transform="translate(0.219727)"/>
</clipPath>
</defs>
</svg>
