<svg width="1392" height="390" viewBox="0 0 1392 390" fill="none" xmlns="http://www.w3.org/2000/svg">
<g clip-path="url(#clip0_128_64)">
<path d="M688.64 386.638H545.25V363.34L688.64 386.638Z" fill="white"/>
<path d="M776.882 102.104C775.433 111.053 771.884 119.12 766.235 126.305C760.565 133.49 752.669 140.212 742.547 146.494C732.404 152.754 720.203 158.721 705.965 164.414C691.705 170.107 675.283 175.842 656.677 181.62C638.932 187.124 620.158 193.51 600.333 200.737C580.803 207.859 562.449 216.64 545.25 227.186V-9.63891H492.539V-10.0801H557.346L547.056 53.3226C597.792 32.8606 648.424 26.7262 698.992 34.9404C728.246 39.7093 749.246 47.7134 762.014 58.9528C774.761 70.2132 779.738 84.6038 776.882 102.104Z" fill="white"/>
<path d="M876.046 177.628L840.955 334.643L623.666 299.308C624.527 293.993 628.181 288.825 634.607 283.804C641.033 278.804 649.391 273.951 659.681 269.266C669.992 264.602 681.731 260.064 694.94 255.674C708.128 251.262 721.821 246.892 735.996 242.564C756.912 236.388 777.198 229.77 796.854 222.712C816.532 215.653 834.235 207.25 849.985 197.502C859.603 191.536 868.297 184.918 876.046 177.628Z" fill="white"/>
<path d="M917.962 -10.0801L902.632 58.5536C896.206 45.1294 886.567 32.8606 873.694 21.7263C859.56 9.52054 841.773 -1.08858 820.311 -10.0801H917.962Z" fill="white"/>
<path d="M178.922 -9.63892H0V386.807H68.2928V243.174H178.922C206.747 243.174 220.671 230.842 220.671 206.178V26.8313C220.671 2.52484 206.747 -9.63892 178.922 -9.63892ZM151.769 192.25H68.2928V41.285H151.769V192.25Z" fill="white"/>
<path d="M545.25 363.34V386.807H479.561V352.668L492.539 354.769L545.25 363.34Z" fill="white"/>
<path d="M545.25 -9.63892V227.187C544.956 227.355 544.683 227.523 544.41 227.691C526.938 238.426 511.817 251.304 499.007 266.304C496.697 269.014 494.534 271.808 492.539 274.707C487.058 282.606 482.732 291.22 479.561 300.568V191.242C479.561 180.948 480.926 166.578 483.656 148.175L424.687 350.589H389.953L330.711 148.175C333.42 166.914 334.785 181.284 334.785 191.242V386.807H269.118V-9.63892H333.63L405.43 209.477C406.207 211.851 406.795 217.838 407.173 227.46C407.173 223.258 407.761 217.25 408.937 209.477L480.737 -9.63892H545.25Z" fill="white"/>
<path d="M865.335 386.638V386.806H896.961V386.638H865.335Z" fill="white"/>
<path d="M989.782 -10.1431H917.982V-10.08L902.631 58.5537C903.576 60.5075 904.437 62.5033 905.235 64.499C911.514 80.2762 913.215 97.0197 910.338 114.709C907.272 133.553 900.384 149.624 889.674 162.922C885.516 168.09 880.958 172.985 876.044 177.628L840.953 334.643L872.936 339.832L865.334 386.639H896.982L910.674 311.576H996.208L1009.92 386.807H1077.65L989.782 -10.1431ZM919.725 260.653L932.262 193.889L953.304 81.8098L986.568 260.653H919.725Z" fill="white"/>
<path d="M1327.49 -9.63892L1255.69 209.477C1254.51 217.25 1253.94 223.258 1253.94 227.46C1253.54 217.838 1252.96 211.851 1252.18 209.477L1180.38 -9.63892H1115.87V386.807H1181.56V191.242C1181.56 181.284 1180.19 166.914 1177.46 148.175L1236.72 350.589H1271.46L1330.41 148.175C1327.68 166.578 1326.31 180.948 1326.31 191.242V386.807H1392V-9.63892H1327.49Z" fill="white"/>
<path d="M896.5 86.0325C896.353 105.129 892.027 122.062 883.48 136.851C880.162 142.587 876.403 148.133 872.266 153.469C865.735 161.872 858.153 169.729 849.564 177.103C835.494 189.162 819.303 200.17 800.928 210.17C782.595 220.17 763.568 229.813 743.849 239.14C730.514 245.59 717.641 252.018 705.293 258.405C692.924 264.77 682.003 271.052 672.532 277.249C663.082 283.468 655.564 289.539 649.978 295.463C644.392 301.409 641.578 307.081 641.557 312.459L861.703 313.993L894.106 314.203L893.77 361.618V361.786L893.581 389.958L719.174 388.761L573.915 387.773L520.512 387.395L507.366 387.311L497.348 387.227L497.558 356.009C497.6 349.055 498.209 342.291 499.364 335.82C501.065 326.093 504.005 316.913 508.226 308.278C509.76 305.106 511.461 302.018 513.33 298.972C523.683 282.186 536.64 267.123 552.264 253.846C552.516 253.636 552.747 253.426 553.02 253.216C568.392 240.149 585.192 228.657 603.4 218.615C621.88 208.426 639.457 199.225 656.131 191.074C673.624 182.502 688.976 174.309 702.185 166.494C715.373 158.679 726.524 150.906 735.575 143.175C744.605 135.423 751.388 127.566 755.882 119.583C760.355 111.621 762.623 103.091 762.686 94.0367C762.812 76.3057 755.693 62.8605 741.371 53.6799C727.028 44.5413 705.041 39.8565 675.409 39.6254C624.19 39.2682 575.091 53.1127 528.093 81.1376L528.534 16.9155L528.639 0.739185C580.593 -22.1598 639.1 -33.4412 704.159 -33C734.336 -32.8109 761.384 -29.8698 785.304 -24.2186C786.333 -23.9665 787.362 -23.7354 788.37 -23.4623C810.966 -17.8741 830.16 -10.1221 845.994 -0.227188C860.422 8.80634 871.825 19.4365 880.246 31.7263C881.485 33.512 882.64 35.3607 883.732 37.2094C892.363 51.8312 896.605 68.1125 896.479 86.0325H896.5Z" fill="#ED1C24"/>
</g>
<defs>
<clipPath id="clip0_128_64">
<rect width="1392" height="423" fill="white" transform="translate(0 -33)"/>
</clipPath>
</defs>
</svg>
