<svg width="132" height="40" viewBox="0 0 132 40" fill="none" xmlns="http://www.w3.org/2000/svg">
<path d="M65.1443 39.6821H51.5798V37.479L65.1443 39.6821Z" fill="white"/>
<path d="M73.4919 12.7758C73.3549 13.622 73.0191 14.3849 72.4847 15.0643C71.9484 15.7437 71.2014 16.3794 70.2439 16.9734C69.2843 17.5654 68.1301 18.1296 66.7832 18.668C65.4343 19.2063 63.8808 19.7487 62.1207 20.295C60.442 20.8155 58.666 21.4194 56.7907 22.1028C54.9431 22.7762 53.2069 23.6066 51.5799 24.6039V2.20908H46.5935V2.16736H52.7241L51.7507 8.16289C56.5503 6.22795 61.34 5.64787 66.1237 6.42462C68.891 6.87558 70.8776 7.63247 72.0854 8.69529C73.2913 9.76011 73.7621 11.1209 73.4919 12.7758Z" fill="white"/>
<path d="M82.8726 19.9175L79.5531 34.7653L58.9978 31.4239C59.0793 30.9213 59.4249 30.4326 60.0328 29.9578C60.6407 29.485 61.4314 29.0261 62.4048 28.583C63.3802 28.142 64.4907 27.7129 65.7403 27.2977C66.9879 26.8805 68.2831 26.4673 69.6241 26.0581C71.6027 25.474 73.5218 24.8483 75.3812 24.1808C77.2426 23.5133 78.9173 22.7186 80.4073 21.7969C81.3171 21.2327 82.1396 20.6069 82.8726 19.9175Z" fill="white"/>
<path d="M86.8377 2.16736L85.3875 8.65755C84.7796 7.38812 83.8678 6.22795 82.65 5.17506C81.313 4.02085 79.6304 3.01762 77.6001 2.16736H86.8377Z" fill="white"/>
<path d="M16.9257 2.20908H0V39.698H6.46039V26.1157H16.9257C19.558 26.1157 20.8751 24.9496 20.8751 22.6173V5.6578C20.8751 3.35931 19.558 2.20908 16.9257 2.20908ZM14.3571 21.3002H6.46039V7.02457H14.3571V21.3002Z" fill="white"/>
<path d="M51.5798 37.479V39.698H45.3657V36.4698L46.5934 36.6685L51.5798 37.479Z" fill="white"/>
<path d="M51.5799 2.20908V24.6039C51.5521 24.6198 51.5263 24.6357 51.5005 24.6516C49.8476 25.6667 48.4173 26.8845 47.2055 28.3029C46.9869 28.5592 46.7823 28.8234 46.5936 29.0976C46.0751 29.8445 45.6658 30.659 45.3659 31.5431V21.2049C45.3659 20.2314 45.495 18.8726 45.7533 17.1323L40.1749 36.2731H36.8891L31.2849 17.1323C31.5412 18.9044 31.6703 20.2632 31.6703 21.2049V39.698H25.4583V2.20908H31.5611L38.3532 22.9292C38.4267 23.1537 38.4823 23.7199 38.5181 24.6297C38.5181 24.2324 38.5737 23.6643 38.685 22.9292L45.4771 2.20908H51.5799Z" fill="white"/>
<path d="M81.8594 39.6821V39.698H84.8512V39.6821H81.8594Z" fill="white"/>
<path d="M93.6319 2.16141H86.8398V2.16737L85.3876 8.65756C85.477 8.84231 85.5584 9.03104 85.6339 9.21976C86.2279 10.7117 86.3888 12.295 86.1167 13.9677C85.8266 15.7497 85.175 17.2694 84.1619 18.5269C83.7685 19.0156 83.3374 19.4785 82.8726 19.9176L79.553 34.7653L82.5786 35.256L81.8594 39.6821H84.8532L86.1485 32.5841H94.2398L95.5371 39.698H101.944L93.6319 2.16141ZM87.0047 27.7686L88.1907 21.4552L90.1812 10.8567L93.328 27.7686H87.0047Z" fill="white"/>
<path d="M125.578 2.20908L118.786 22.9292C118.675 23.6643 118.621 24.2324 118.621 24.6297C118.584 23.7199 118.528 23.1537 118.455 22.9292L111.662 2.20908H105.56V39.698H111.774V21.2049C111.774 20.2632 111.645 18.9044 111.386 17.1323L116.992 36.2731H120.278L125.855 17.1323C125.596 18.8726 125.467 20.2314 125.467 21.2049V39.698H131.681V2.20908H125.578Z" fill="white"/>
<path d="M84.8075 11.256C84.7936 13.0618 84.3843 14.663 83.5758 16.0616C83.2619 16.6039 82.9063 17.1284 82.5149 17.633C81.8971 18.4276 81.1799 19.1706 80.3674 19.8679C79.0364 21.0082 77.5048 22.0492 75.7665 22.9948C74.0322 23.9404 72.2323 24.8522 70.3669 25.7343C69.1054 26.3442 67.8877 26.9521 66.7196 27.556C65.5495 28.1579 64.5164 28.7519 63.6205 29.338C62.7265 29.926 62.0153 30.5001 61.4869 31.0603C60.9584 31.6225 60.6922 32.1589 60.6903 32.6675L81.5157 32.8125L84.581 32.8324L84.5492 37.3161V37.332L84.5313 39.996L68.0327 39.8828L54.2914 39.7894L49.2395 39.7536L47.9959 39.7457L47.0483 39.7378L47.0682 36.7857C47.0722 36.1281 47.1298 35.4884 47.2391 34.8766C47.4 33.9568 47.6781 33.0886 48.0774 32.2721C48.2224 31.9722 48.3833 31.6801 48.5601 31.3921C49.5395 29.8048 50.7653 28.3804 52.2433 27.1249C52.2671 27.105 52.289 27.0852 52.3148 27.0653C53.769 25.8296 55.3582 24.743 57.0806 23.7934C58.8288 22.8299 60.4916 21.9598 62.0689 21.189C63.7238 20.3784 65.176 19.6037 66.4255 18.8647C67.6731 18.1256 68.728 17.3906 69.5842 16.6595C70.4385 15.9265 71.0801 15.1835 71.5053 14.4286C71.9284 13.6757 72.1429 12.8691 72.1489 12.0129C72.1608 10.3362 71.4874 9.0648 70.1325 8.19666C68.7757 7.33249 66.6957 6.88948 63.8926 6.86763C59.0473 6.83386 54.4027 8.14302 49.9567 10.7931L49.9984 4.72013L50.0084 3.19045C54.9232 1.02507 60.4578 -0.041731 66.6123 -1.25839e-05C69.467 0.0178667 72.0257 0.295989 74.2885 0.830382C74.3858 0.854221 74.4832 0.876074 74.5785 0.901899C76.7161 1.43033 78.5318 2.16338 80.0297 3.09907C81.3945 3.9533 82.4732 4.95852 83.2698 6.12067C83.3871 6.28953 83.4963 6.46435 83.5996 6.63917C84.4161 8.02184 84.8174 9.56145 84.8055 11.256H84.8075Z" fill="#ED1C24"/>
</svg>
