<svg width="25" height="24" viewBox="0 0 25 24" fill="none" xmlns="http://www.w3.org/2000/svg">
<path d="M19.3578 10.6586C15.548 8.39605 9.26383 8.18801 5.6269 9.29183C5.04285 9.4691 4.42521 9.13926 4.2483 8.55539C4.07127 7.97095 4.40063 7.35377 4.98512 7.17622C9.16006 5.90897 16.1003 6.15369 20.4862 8.75721C21.0115 9.06912 21.1838 9.74756 20.8725 10.272C20.5609 10.7973 19.8819 10.9704 19.3578 10.6586ZM19.2331 14.0097C18.9658 14.4434 18.3987 14.5795 17.9655 14.3131C14.7893 12.3607 9.94602 11.7951 6.1883 12.9358C5.701 13.0831 5.1863 12.8083 5.03827 12.3219C4.89145 11.8346 5.16634 11.3209 5.65276 11.1727C9.94541 9.87006 15.2818 10.501 18.9299 12.7428C19.363 13.0096 19.4994 13.577 19.2331 14.0097ZM17.7869 17.228C17.5744 17.5763 17.121 17.6854 16.7739 17.4731C13.9985 15.7769 10.5051 15.3938 6.39101 16.3335C5.99456 16.4244 5.59944 16.1759 5.50903 15.7795C5.41822 15.3832 5.66572 14.988 6.06304 14.8976C10.5652 13.8683 14.4272 14.3113 17.5424 16.2149C17.8897 16.4271 17.9991 16.8808 17.7869 17.228ZM12.3665 0.180721C5.83905 0.180721 0.547363 5.47229 0.547363 11.9996C0.547363 18.5277 5.83905 23.8188 12.3665 23.8188C18.8941 23.8188 24.1855 18.5277 24.1855 11.9996C24.1855 5.47229 18.8941 0.180721 12.3665 0.180721Z" fill="white"/>
</svg>
