<svg width="22" height="24" viewBox="0 0 22 24" fill="none" xmlns="http://www.w3.org/2000/svg">
<g clip-path="url(#clip0_128_95)">
<path d="M18.0632 4.8106C16.7682 3.96779 15.8344 2.61871 15.5426 1.04688C15.4799 0.707352 15.4449 0.357589 15.4449 0H11.3128L11.3062 16.5358C11.2369 18.3875 9.71041 19.8739 7.8397 19.8739C7.25793 19.8739 6.71053 19.7288 6.22823 19.4754C5.12256 18.8944 4.36596 17.7374 4.36596 16.4057C4.36596 14.4932 5.92438 12.937 7.8391 12.937C8.1966 12.937 8.53963 12.996 8.86398 13.0971V8.88494C8.52818 8.83919 8.18695 8.8109 7.8391 8.8109C3.64553 8.8109 0.233887 12.2176 0.233887 16.4057C0.233887 18.9751 1.51921 21.2489 3.48095 22.6238C4.71623 23.4901 6.21919 24 7.8397 24C12.0333 24 15.4449 20.5933 15.4449 16.4057V8.02047C17.0654 9.18173 19.0513 9.8662 21.1939 9.8662V5.74009C20.04 5.74009 18.9651 5.39755 18.0632 4.8106Z" fill="white"/>
</g>
<defs>
<clipPath id="clip0_128_95">
<rect width="20.96" height="24" fill="white" transform="translate(0.233887)"/>
</clipPath>
</defs>
</svg>
