<svg width="25" height="24" viewBox="0 0 25 24" fill="none" xmlns="http://www.w3.org/2000/svg">
<g clip-path="url(#clip0_128_93)">
<path fill-rule="evenodd" clip-rule="evenodd" d="M20.7562 3.48501C18.5129 1.23878 15.5293 0.00113964 12.3503 0C5.79967 0 0.468452 5.33065 0.466173 11.883C0.465033 13.9776 1.01263 16.0221 2.05255 17.8239L0.366455 23.9825L6.66636 22.33C8.40201 23.2771 10.3565 23.7756 12.3452 23.7762H12.3503C18.8998 23.7762 24.2316 18.445 24.2339 11.8927C24.235 8.7171 23.0002 5.7318 20.7562 3.48558V3.48501ZM12.3503 21.7693H12.3463C10.5741 21.7688 8.83567 21.2924 7.31883 20.3926L6.95812 20.1784L3.21954 21.159L4.21729 17.5139L3.98252 17.1401C2.99389 15.5674 2.47136 13.7497 2.4725 11.8836C2.47478 6.43781 6.90569 2.0069 12.3543 2.0069C14.9925 2.00804 17.4724 3.03656 19.3374 4.90386C21.2024 6.77059 22.2287 9.25273 22.2275 11.8915C22.2252 17.3379 17.7944 21.7688 12.3503 21.7688V21.7693ZM17.7681 14.372C17.4712 14.2232 16.0114 13.5052 15.739 13.4061C15.4666 13.3069 15.2689 13.2574 15.0712 13.5548C14.8735 13.8523 14.3042 14.5213 14.131 14.719C13.9578 14.9173 13.7845 14.9418 13.4876 14.793C13.1908 14.6443 12.2341 14.3309 11.0996 13.3195C10.2169 12.532 9.62084 11.5599 9.44767 11.2624C9.27443 10.965 9.42944 10.8043 9.57755 10.6567C9.71088 10.5234 9.87443 10.3097 10.0231 10.1365C10.1719 9.96325 10.2209 9.83907 10.32 9.6413C10.4192 9.44301 10.3696 9.26983 10.2956 9.12106C10.2214 8.97235 9.62774 7.51074 9.37985 6.91644C9.13879 6.33752 8.89382 6.41615 8.71202 6.40647C8.53879 6.39792 8.34109 6.39621 8.14279 6.39621C7.94449 6.39621 7.62308 6.47029 7.35072 6.76774C7.07837 7.06515 6.31137 7.78369 6.31137 9.24471C6.31137 10.7057 7.37525 12.1183 7.52396 12.3166C7.67267 12.5149 9.61799 15.5139 12.5964 16.8005C13.3048 17.1065 13.858 17.2894 14.2894 17.4262C15.0006 17.6524 15.6478 17.6205 16.1595 17.5441C16.7299 17.4587 17.9163 16.8256 18.1636 16.1321C18.4109 15.4386 18.4109 14.8437 18.3368 14.7201C18.2628 14.5964 18.0645 14.5218 17.7676 14.3731L17.7681 14.372Z" fill="white"/>
</g>
<defs>
<clipPath id="clip0_128_93">
<rect width="23.8674" height="24" fill="white" transform="translate(0.366455)"/>
</clipPath>
</defs>
</svg>
