<svg width="25" height="24" viewBox="0 0 25 24" fill="none" xmlns="http://www.w3.org/2000/svg">
<path fill-rule="evenodd" clip-rule="evenodd" d="M20.748 4.542C18.617 4 12.5 4 12.5 4C12.5 4 6.383 4 4.252 4.542C3.066 4.841 2.141 5.767 1.842 6.952C1.3 9.083 1.3 11.75 1.3 11.75C1.3 11.75 1.3 14.417 1.842 16.548C2.141 17.733 3.066 18.659 4.252 18.958C6.383 19.5 12.5 19.5 12.5 19.5C12.5 19.5 18.617 19.5 20.748 18.958C21.934 18.659 22.859 17.733 23.158 16.548C23.7 14.417 23.7 11.75 23.7 11.75C23.7 11.75 23.7 9.083 23.158 6.952C22.859 5.767 21.934 4.841 20.748 4.542ZM10.3 14.75V8.75L16.3 11.75L10.3 14.75Z" fill="white"/>
</svg>
